#!OML:ASF F:\VICON\USERDATA\INSTALL\rory3\rory3.ASF
:FULLY-SPECIFIED
:DEGREES
114
root 0.3071667626275538 18.28422384378629 41.81298982351995 2.151838859558259 2.9810201572545187 -3.399315880017437
lfemur -30.996959843585092 -2.881466621486965 -16.654350666794862
ltibia 19.821081105481127
lfoot -0.5440326655885211 -1.7140314296320982
ltoes -25.72631437399478
rfemur -10.005648806085482 0.475906723068895 29.70474780591403
rtibia 102.97009765635619
rfoot 9.997203614764231 -20.6795598548661
rtoes -0.5109700546264087
lowerback nan 2.6314246432743573 4.9170087664548685
upperback -1.8747780961912672 5.2066350202252 0.0018892529269429748
thorax -9.247206469631008 1.9925210715032626 -3.0639226126946424
lowerneck -22.502356541783985 -5.1387337958054164 -1.9104137925336122
upperneck 11.090792304355768 -6.79107550129404 5.0085763350210435
head 7.8995844316505694 -3.2724938698460715 0.8906290531224218
lclavicle 1.2157583930237494e-14 -1.613866256350363e-14
lhumerus -68.12222486789287 0.16570426070221167 91.08079297196552
lradius 124.8285790415684
lwrist 30.60292268003239
lhand -22.38932842062814 -1.9749193884567589
lfingers nan
lthumb 4.045872710667482 28.185443734162618
rclavicle 1.2800633591821574e-14 -1.6050031436304896e-14
rhumerus -43.77307933518547 17.972964236385288 -101.1672389051413
rradius 111.14306849041822
rwrist -9.927979529107887
rhand -18.996950279207926 nan
rfingers nan
rthumb 7.021143852169054 10.439177723124512
115
root 0.2793976689778919 18.20941222105498 42.043640640880305 1.8548902532993448 3.6522314312583406 -3.129776843875203
lfemur -30.537519125417226 -2.333047364423784 -17.424821052972746
ltibia 20.067605129761404
lfoot -0.7587531406229313 -2.5788590706336683
ltoes -26.563427651820916
rfemur -11.496384836537132 -0.25097176586297354 29.735434628841702
rtibia 107.83232808507479
rfoot 9.304786911926689 -22.264097005729983
rtoes 0.23724481635748207
lowerback nan 2.367875870838048 4.653464358968639
upperback -1.5355132591868266 4.853351715356662 -0.07663577550820722
thorax -8.962114705029743 1.8375674471848091 -2.898230349569472
lowerneck -22.506702260226817 -5.086857539141371 -2.081670090548249
upperneck 10.74092382857851 -6.736673044817737 5.2358833276060235
head 7.825727637958744 -3.2217959664652045 1.0168439042461603
lclavicle 1.1769729714269082e-13 9.341570429537096e-15
lhumerus -67.08940550449083 -0.08393561974690122 91.14696703925541
lradius 125.6193991023149
lwrist 30.520413917312105
lhand -22.140748616880135 -2.617184879661858
lfingers nan
lthumb 4.355565332887694 27.58047710176923
rclavicle 1.1745344780496032e-13 9.377726110270339e-15
rhumerus -44.25999921230375 17.65179778021195 -101.6538289145947
rradius 110.30125719412302
rwrist -9.004108001789238
rhand -19.28602603908753 nan
rfingers nan
rthumb 6.766989317760027 10.52563138350023
116
root 0.2579507204182331 18.15562277255059 42.64707293818322 1.7092289011164081 3.2963034155559185 -2.905957417273859
lfemur -30.16693749215847 -1.0300272588154344 -18.276870130798912
ltibia 20.96365113621403
lfoot -1.0908917244174416 -2.8980227706003063
ltoes -26.58677473145627
rfemur -13.02546464350107 -0.4330337890135081 29.26179684368146
rtibia 112.95297331530486
rfoot 8.878181052865841 -23.11443645376179
rtoes 1.1357541268102302
lowerback nan 2.411686286661692 4.269722110162991
upperback -1.2434925403088593 4.873115842325263 -0.21024015603102186
thorax -8.945169384208283 1.862977946070439 -2.8212544118092406
lowerneck -21.99041396800559 -4.9767192703418255 -2.039331676737154
upperneck 9.989707072315374 -6.614692987285757 5.322949177875778
head 7.551386736219551 -3.155197958716961 1.0949533024319074
lclavicle -3.190246132658984e-14 -1.0384460443126305e-15
lhumerus -65.87762218446693 -0.3529861863248911 91.26152823028191
lradius 126.28824431154204
lwrist 30.438792636054913
lhand -22.29149827467114 -2.5594643404774837
lfingers nan
lthumb 4.138949420603453 27.621502516095703
rclavicle -3.090941529353382e-14 -4.493757461138832e-16
rhumerus -44.88197616202979 17.25816860678554 -102.13166806950278
rradius 109.43133495825471
rwrist -8.574977840779571
rhand -19.547408487614888 nan
rfingers nan
rthumb 6.53383439745318 11.428623473231102
117
root 0.2430699876020006 18.078873495634735 42.56243453125427 1.428348827786503 3.7688436855361473 -2.483375683496589
lfemur -30.138297190476557 -0.0037656445224544255 -19.385321399407236
ltibia 22.323120144622
lfoot -1.2377737534074815 -4.006216230102973
ltoes -24.546017495268813
rfemur -14.347211530074699 -1.3919669559640926 28.671325807349156
rtibia 117.99796031020145
rfoot 8.272768211901912 -23.659177265133962
rtoes 0.6177586405841033
lowerback nan 2.1590395767740285 3.7605829992699786
upperback -0.8769417597132212 4.448900475959648 -0.31542595925268135
thorax -8.699143819027045 1.6965401105152242 -2.5368671902238287
lowerneck -21.376668169528635 -4.843523256065101 -1.9276007849930659
upperneck 9.342804327793864 -6.437461403199876 5.297802903957466
head 7.251055121973555 -3.0718723803766865 1.1401939156235508
lclavicle -5.4036305772683254e-14 -1.8840754345705422e-14
lhumerus -64.5559556305574 -0.6315114693005022 91.44895939233388
lradius 126.86154275294992
lwrist 30.454223599864047
lhand -22.52541037892088 -2.5373220988538465
lfingers nan
lthumb 3.902578855739505 27.59954103593413
rclavicle -5.2769220838170954e-14 -1.7846312110420792e-14
rhumerus -45.45496698186003 16.904083530526517 -102.4732901353659
rradius 108.43194034787221
rwrist -9.88199807088128
rhand -18.96021028648283 nan
rfingers nan
rthumb 7.093586963191218 12.49283967480034
118
root 0.21263950056712222 17.976569398490817 42.513722051145194 0.8925991505860131 4.329703647387234 -2.1622225549857172
lfemur -30.17253423591942 0.8182018029618798 -20.257636157745754
ltibia 24.336930445921855
lfoot -2.514586467158228 -6.344700539200096
ltoes -16.76413929703028
rfemur -15.311413837761286 -2.6891819594979722 28.21430356702981
rtibia 122.83898224616948
rfoot 7.654844343339864 -23.920492627029237
rtoes 21.938883861523674
lowerback nan 1.8461718821556223 3.3350528066299083
upperback -0.5176720612336791 3.9534090154555948 -0.2987806077904567
thorax -8.602347744034521 1.4992081842109892 -2.1310740756639515
lowerneck -21.449895264825216 -4.6979433425161785 -1.7626835752608985
upperneck 9.496592891109568 -6.236630811765311 5.203916375852142
head 7.220037261734241 -2.9598425423150845 1.141776085341609
lclavicle 1.1043400328015502e-14 -3.6660042395121424e-15
lhumerus -63.25315876232151 -1.0034631017441118 91.69315632024107
lradius 127.40627762434154
lwrist 30.442945986096845
lhand -22.383631622663 -2.3414867911074406
lfingers nan
lthumb 4.071794106454984 27.755331667897945
rclavicle 1.3495038135783557e-14 -1.6668849389222102e-15
rhumerus -45.90214100282533 16.73874458132236 -102.76279935862048
rradius 107.11457774600255
rwrist -9.069331402101266
rhand -19.563787024514678 nan
rfingers nan
rthumb 6.499117951189605 12.10089415717763
119
root 0.18737573730007262 17.87383345521486 42.81187315788087 0.30701784763141315 4.664665268072289 -1.710565535208128
lfemur -30.15746792379291 1.386776226280985 -21.029602177159695
ltibia 26.6848761355862
lfoot -4.369132335977268 -8.126126411872512
ltoes -11.944419660772027
rfemur -16.278048374980937 -3.9028913332257575 27.419204985784067
rtibia 127.56285941037206
rfoot 7.0992259697329505 -23.7532582507426
rtoes 12.323992020623201
lowerback nan 1.646600781819028 2.8750276988681054
upperback -0.1615172933779736 3.6218026275343167 -0.38729032704718214
thorax -8.743815135122562 1.367060554092569 -1.8917533345630069
lowerneck -22.12497359169602 -4.661926522158891 -1.8016688437462725
upperneck 10.125101533585564 -6.191459501895301 5.1922542388105155
head 7.412608550860381 -2.89130179072027 1.167285120191715
lclavicle -9.333958309062192e-14 -5.3266783472771414e-17
lhumerus -61.86752595096424 -1.6514555477264992 91.92152107503085
lradius 128.0253312533767
lwrist 30.40886415412708
lhand -22.314682776701606 -1.965793757751831
lfingers nan
lthumb 4.077437237333868 28.0179683577951
rclavicle -8.986708858684078e-14 2.5897580877549946e-15
rhumerus -46.40392357253835 16.17169271305262 -103.02594177557505
rradius 105.84079667205626
rwrist -8.758549436682776
rhand -19.58971623065664 nan
rfingers nan
rthumb 6.46316605828312 11.374802393459346
